<svg width="271" height="361" viewBox="0 0 271 361" fill="none" xmlns="http://www.w3.org/2000/svg">
<path d="M26.5 93.0159C6.5 113.016 1.52141e-05 130.694 1.90735e-06 172.427L0 301.646C4.1312 341.016 42.1313 360.818 71.1313 360.818H199C228 360.818 266 341.016 270.131 301.646V172.427C270.131 130.694 263.631 113.016 243.631 93.0159L164.572 16.3891C164.572 16.3891 148.559 -0.484156 134 0.0158724C120.115 0.492768 105.56 16.3891 105.56 16.3891L26.5 93.0159Z" fill="url(#paint0_linear_3_82)"/>
<path d="M198 180.005H72C44.3858 180.005 22 202.391 22 230.005V290.005C22 317.619 44.3858 340.005 72 340.005H198C225.614 340.005 248 317.619 248 290.005V230.005C248 202.391 225.614 180.005 198 180.005Z" fill="white"/>
<path d="M181.261 220.005H88.7391C72.3147 220.005 59 236.971 59 257.9V262.11C59 283.039 72.3147 300.005 88.7391 300.005H181.261C197.685 300.005 211 283.039 211 262.11V257.9C211 236.971 197.685 220.005 181.261 220.005Z" fill="#06175F"/>
<path d="M83 266.15C89.6 247.483 109.4 247.483 116 266.15" stroke="#16C8BD" stroke-width="8.53333" stroke-linecap="round"/>
<path d="M154 266.15C160.6 247.483 180.4 247.483 187 266.15" stroke="#16C8BD" stroke-width="8.53333" stroke-linecap="round"/>
<path d="M134.5 194.845V163.15V194.845Z" fill="black"/>
<path d="M134.5 194.845V163.15" stroke="white" stroke-width="10.9714" stroke-linecap="round"/>
<path d="M134.5 167.15C143.06 167.15 150 160.21 150 151.65C150 143.089 143.06 136.15 134.5 136.15C125.94 136.15 119 143.089 119 151.65C119 160.21 125.94 167.15 134.5 167.15Z" fill="white"/>
<path d="M134 0.00532116C142.562 -0.19361 150.629 5.25119 150.67 5.27876C150.67 5.27876 158.991 10.1384 163.001 14.8696L164 76.0053L163.993 76.0034C163.996 76.1702 164 76.3378 164 76.5053C164 92.2453 151.24 105.005 135.5 105.005C119.76 105.005 107 92.2453 107 76.5053C107 61.0143 119.359 48.4092 134.755 48.0141L134 0.00532116Z" fill="white"/>
<defs>
<linearGradient id="paint0_linear_3_82" x1="-2.93549" y1="8.16039" x2="274.452" y2="218.2" gradientUnits="userSpaceOnUse">
<stop stop-color="#1F58FF"/>
<stop offset="0.395752" stop-color="#1376DE"/>
<stop offset="1" stop-color="#16C8BD"/>
</linearGradient>
</defs>
</svg>
